<?xml version="1.0" standalone="no"?><!DOCTYPE svg PUBLIC "-//W3C//DTD SVG 1.1//EN" "http://www.w3.org/Graphics/SVG/1.1/DTD/svg11.dtd"><svg t="1759421645355" class="icon" viewBox="0 0 1024 1024" version="1.1" xmlns="http://www.w3.org/2000/svg" p-id="19792" xmlns:xlink="http://www.w3.org/1999/xlink" width="200" height="200"><path d="M863.48112 70.897723H378.299929c-29.949103 0-52.91107 7.986905-68.883857 24.957415-15.972786 15.972786-23.959691 38.934754-22.960945 67.88511v46.920636H150.683884c-58.900481 0-92.843548 33.943067-92.843548 92.843548v345.417007c0 58.900481 33.943067 92.843548 92.843548 92.843548h13.976316v186.68482c0 9.983375 5.989411 19.966751 15.972787 22.960945 2.995217 0.998747 5.989411 1.99647 8.984628 1.99647 6.988158 0 13.976316-2.995217 18.968004-7.986905l184.688349-203.656353h243.588831c4.991688 0 10.981099 0 17.969257-0.998747 27.952632-2.995217 47.919383-15.972786 60.896952-35.939537l90.847077 101.828177c4.991688 4.991688 11.979846 7.986905 18.968004 7.986905 2.995217 0 5.989411-0.998747 8.984629-1.996471 9.983375-3.992941 15.972786-12.978593 15.972786-22.960944V602.001827h13.976316c58.900481 0 92.843548-33.943067 92.843548-92.843548v-345.417008c-0.997724-58.900481-34.939767-92.843548-93.840248-92.843548zM646.846174 690.851411H381.294123c-6.988158 0-13.976316 2.995217-18.968004 7.986905l-147.751089 164.721598V715.808826c0-13.976316-10.981099-24.957415-24.957415-24.957415h-38.934754c-31.945573 0-42.927695-11.979846-42.927695-42.927695V303.505455c0-31.945573 11.979846-42.927695 42.927695-42.927695h135.771243v249.579266c-0.998747 52.91107 26.954909 85.85539 75.872015 91.844801 5.989411 0.998747 10.981099 0.998747 16.971533 0.998747h243.588831l54.907541 60.896951c-3.992941 18.96698-14.975063 24.957415-30.94785 26.953886z m259.562641-180.695409c0 30.947849-11.979846 42.927695-42.927695 42.927695h-38.934754c-13.976316 0-24.957415 10.981099-24.957415 24.957415v147.751089l-77.868485-86.853114-69.881581-77.868485c-4.991688-5.989411-10.981099-8.984628-17.969257-8.984628H368.31553c-19.966751-1.99647-32.94432-9.983375-31.945573-41.928948V162.742525c0-14.975063 2.995217-25.956162 8.984629-31.945573 5.989411-5.989411 17.969257-9.983375 33.943066-9.983376h485.181191c30.947849 0 42.927695 11.979846 42.927695 42.927695v346.415755h-0.997723z" p-id="19793"></path></svg>