<svg id="add_group_24" viewBox="0 0 24 24" fill="none" xmlns="http://www.w3.org/2000/svg"><circle cx="4" cy="4" r="3.25" transform="matrix(-1 0 0 1 19 4)" stroke="currentColor" stroke-width="1.5" stroke-linecap="square"></circle><circle cx="3" cy="3" r="2.25" transform="matrix(-1 0 0 1 10 6)" stroke="currentColor" stroke-width="1.5" stroke-linecap="square"></circle><path fill-rule="evenodd" clip-rule="evenodd" d="M8.01181 19H3.71428C2.76751 19 2 18.2325 2 17.2857C2 14.9188 3.91878 13 6.28571 13H7.71428C8.78293 13 9.76023 13.3911 10.5108 14.038C10.0931 14.328 9.71513 14.6711 9.38663 15.0576C8.92089 14.7075 8.34182 14.5 7.71428 14.5H7.71149H7.7087H7.70591H7.70312H7.70033H7.69754H7.69475H7.69196H7.68917H7.68638H7.68359H7.6808H7.67801H7.67522H7.67243H7.66964H7.66685H7.66406H7.66127H7.65848H7.65569H7.6529H7.65011H7.64732H7.64453H7.64174H7.63895H7.63616H7.63337H7.63058H7.62779H7.625H7.62221H7.61942H7.61663H7.61384H7.61105H7.60826H7.60547H7.60268H7.59989H7.5971H7.59431H7.59152H7.58873H7.58594H7.58315H7.58036H7.57757H7.57478H7.57199H7.5692H7.56641H7.56362H7.56083H7.55803H7.55524H7.55245H7.54966H7.54687H7.54408H7.54129H7.5385H7.53571H7.53292H7.53013H7.52734H7.52455H7.52176H7.51897H7.51618H7.51339H7.5106H7.50781H7.50502H7.50223H7.49944H7.49665H7.49386H7.49107H7.48828H7.48549H7.4827H7.47991H7.47712H7.47433H7.47154H7.46875H7.46596H7.46317H7.46038H7.45759H7.4548H7.45201H7.44922H7.44643H7.44364H7.44085H7.43806H7.43527H7.43248H7.42969H7.4269H7.42411H7.42132H7.41853H7.41574H7.41295H7.41016H7.40737H7.40457H7.40178H7.39899H7.3962H7.39341H7.39062H7.38783H7.38504H7.38225H7.37946H7.37667H7.37388H7.37109H7.3683H7.36551H7.36272H7.35993H7.35714H7.35435H7.35156H7.34877H7.34598H7.34319H7.3404H7.33761H7.33482H7.33203H7.32924H7.32645H7.32366H7.32087H7.31808H7.31529H7.3125H7.30971H7.30692H7.30413H7.30134H7.29855H7.29576H7.29297H7.29018H7.28739H7.2846H7.28181H7.27902H7.27623H7.27344H7.27065H7.26786H7.26507H7.26228H7.25949H7.2567H7.25391H7.25112H7.24832H7.24553H7.24274H7.23995H7.23716H7.23437H7.23158H7.22879H7.226H7.22321H7.22042H7.21763H7.21484H7.21205H7.20926H7.20647H7.20368H7.20089H7.1981H7.19531H7.19252H7.18973H7.18694H7.18415H7.18136H7.17857H7.17578H7.17299H7.1702H7.16741H7.16462H7.16183H7.15904H7.15625H7.15346H7.15067H7.14788H7.14509H7.1423H7.13951H7.13672H7.13393H7.13114H7.12835H7.12556H7.12277H7.11998H7.11719H7.1144H7.11161H7.10882H7.10603H7.10324H7.10045H7.09766H7.09487H7.09207H7.08928H7.08649H7.0837H7.08091H7.07812H7.07533H7.07254H7.06975H7.06696H7.06417H7.06138H7.05859H7.0558H7.05301H7.05022H7.04743H7.04464H7.04185H7.03906H7.03627H7.03348H7.03069H7.0279H7.02511H7.02232H7.01953H7.01674H7.01395H7.01116H7.00837H7.00558H7.00279H7H6.99721H6.99442H6.99163H6.98884H6.98605H6.98326H6.98047H6.97768H6.97489H6.9721H6.96931H6.96652H6.96373H6.96094H6.95815H6.95536H6.95257H6.94978H6.94699H6.9442H6.94141H6.93862H6.93582H6.93303H6.93024H6.92745H6.92466H6.92187H6.91908H6.91629H6.9135H6.91071H6.90792H6.90513H6.90234H6.89955H6.89676H6.89397H6.89118H6.88839H6.8856H6.88281H6.88002H6.87723H6.87444H6.87165H6.86886H6.86607H6.86328H6.86049H6.8577H6.85491H6.85212H6.84933H6.84654H6.84375H6.84096H6.83817H6.83538H6.83259H6.8298H6.82701H6.82422H6.82143H6.81864H6.81585H6.81306H6.81027H6.80748H6.80469H6.8019H6.79911H6.79632H6.79353H6.79074H6.78795H6.78516H6.78236H6.77957H6.77678H6.77399H6.7712H6.76841H6.76562H6.76283H6.76004H6.75725H6.75446H6.75167H6.74888H6.74609H6.7433H6.74051H6.73772H6.73493H6.73214H6.72935H6.72656H6.72377H6.72098H6.71819H6.7154H6.71261H6.70982H6.70703H6.70424H6.70145H6.69866H6.69587H6.69308H6.69029H6.6875H6.68471H6.68192H6.67913H6.67634H6.67355H6.67076H6.66797H6.66518H6.66239H6.6596H6.65681H6.65402H6.65123H6.64844H6.64565H6.64286H6.64007H6.63728H6.63449H6.6317H6.62891H6.62611H6.62332H6.62053H6.61774H6.61495H6.61216H6.60937H6.60658H6.60379H6.601H6.59821H6.59542H6.59263H6.58984H6.58705H6.58426H6.58147H6.57868H6.57589H6.5731H6.57031H6.56752H6.56473H6.56194H6.55915H6.55636H6.55357H6.55078H6.54799H6.5452H6.54241H6.53962H6.53683H6.53404H6.53125H6.52846H6.52567H6.52288H6.52009H6.5173H6.51451H6.51172H6.50893H6.50614H6.50335H6.50056H6.49777H6.49498H6.49219H6.4894H6.48661H6.48382H6.48103H6.47824H6.47545H6.47266H6.46986H6.46707H6.46428H6.46149H6.4587H6.45591H6.45312H6.45033H6.44754H6.44475H6.44196H6.43917H6.43638H6.43359H6.4308H6.42801H6.42522H6.42243H6.41964H6.41685H6.41406H6.41127H6.40848H6.40569H6.4029H6.40011H6.39732H6.39453H6.39174H6.38895H6.38616H6.38337H6.38058H6.37779H6.375H6.37221H6.36942H6.36663H6.36384H6.36105H6.35826H6.35547H6.35268H6.34989H6.3471H6.34431H6.34152H6.33873H6.33594H6.33315H6.33036H6.32757H6.32478H6.32199H6.3192H6.3164H6.31361H6.31082H6.30803H6.30524H6.30245H6.29966H6.29687H6.29408H6.29129H6.2885H6.28571C4.74721 14.5 3.5 15.7472 3.5 17.2857C3.5 17.4041 3.59594 17.5 3.71428 17.5H8.15308C8.05295 17.9282 8 18.3746 8 18.8333C8 18.8899 8.00403 18.9456 8.01181 19Z" fill="currentColor"></path><path fill-rule="evenodd" clip-rule="evenodd" d="M15 13H13.8333C10.6117 13 8 15.6117 8 18.8333C8 19.4777 8.52233 20 9.16667 20H15V18.5H9.51263C9.68284 16.2625 11.5523 14.5 13.8333 14.5H13.8379H13.8424H13.847H13.8516H13.8561H13.8607H13.8652H13.8698H13.8743H13.8789H13.8835H13.888H13.8926H13.8971H13.9017H13.9062H13.9108H13.9154H13.9199H13.9245H13.929H13.9336H13.9382H13.9427H13.9473H13.9518H13.9564H13.9609H13.9655H13.9701H13.9746H13.9792H13.9837H13.9883H13.9928H13.9974H14.002H14.0065H14.0111H14.0156H14.0202H14.0247H14.0293H14.0339H14.0384H14.043H14.0475H14.0521H14.0566H14.0612H14.0658H14.0703H14.0749H14.0794H14.084H14.0885H14.0931H14.0977H14.1022H14.1068H14.1113H14.1159H14.1204H14.125H14.1296H14.1341H14.1387H14.1432H14.1478H14.1523H14.1569H14.1615H14.166H14.1706H14.1751H14.1797H14.1842H14.1888H14.1934H14.1979H14.2025H14.207H14.2116H14.2161H14.2207H14.2253H14.2298H14.2344H14.2389H14.2435H14.248H14.2526H14.2572H14.2617H14.2663H14.2708H14.2754H14.2799H14.2845H14.2891H14.2936H14.2982H14.3027H14.3073H14.3118H14.3164H14.321H14.3255H14.3301H14.3346H14.3392H14.3437H14.3483H14.3529H14.3574H14.362H14.3665H14.3711H14.3757H14.3802H14.3848H14.3893H14.3939H14.3984H14.403H14.4076H14.4121H14.4167H14.4212H14.4258H14.4303H14.4349H14.4395H14.444H14.4486H14.4531H14.4577H14.4622H14.4668H14.4714H14.4759H14.4805H14.485H14.4896H14.4941H14.4987H14.5033H14.5078H14.5124H14.5169H14.5215H14.526H14.5306H14.5352H14.5397H14.5443H14.5488H14.5534H14.5579H14.5625H14.5671H14.5716H14.5762H14.5807H14.5853H14.5898H14.5944H14.599H14.6035H14.6081H14.6126H14.6172H14.6217H14.6263H14.6309H14.6354H14.64H14.6445H14.6491H14.6536H14.6582H14.6628H14.6673H14.6719H14.6764H14.681H14.6855H14.6901H14.6947H14.6992H14.7038H14.7083H14.7129H14.7174H14.722H14.7266H14.7311H14.7357H14.7402H14.7448H14.7493H14.7539H14.7585H14.763H14.7676H14.7721H14.7767H14.7812H14.7858H14.7904H14.7949H14.7995H14.804H14.8086H14.8132H14.8177H14.8223H14.8268H14.8314H14.8359H14.8405H14.8451H14.8496H14.8542H14.8587H14.8633H14.8678H14.8724H14.877H14.8815H14.8861H14.8906H14.8952H14.8997H14.9043H14.9089H14.9134H14.918H14.9225H14.9271H14.9316H14.9362H14.9408H14.9453H14.9499H14.9544H14.959H14.9635H14.9681H14.9727H14.9772H14.9818H14.9863H14.9909H14.9954H15V13Z" fill="currentColor"></path><path fill-rule="evenodd" clip-rule="evenodd" d="M19 15.5L19.0001 12.5L17.5001 12.5L17.5 15.5H14.5V17H17.5L17.5 20L19 20L19 17H22V15.5H19Z" fill="currentColor"></path></svg>