<svg id="Notification" viewBox="0 0 16 16" fill="currentColor" xmlns="http://www.w3.org/2000/svg">
<path fill-rule="evenodd" clip-rule="evenodd" d="M5.03133 10.9796L4.77996 10.8127L4.47824 10.8127L2.19049 10.8128C2.08528 10.8128 2 10.7276 2 10.6224V5.33369C2 5.2285 2.08528 5.14322 2.19047 5.14322L4.48236 5.14317L4.78422 5.14316L5.03566 4.97614L8.99993 2.34278L8.99999 13.6139L5.03133 10.9796ZM2.19054 11.8128L4.47829 11.8127L8.5209 14.4962C9.15394 14.9164 9.99999 14.4625 9.99999 13.7027L9.99993 2.25398C9.99993 1.49403 9.15359 1.04019 8.52058 1.46068L4.48234 4.14317L2.19045 4.14322C1.53298 4.14323 1 4.67622 1 5.33369V10.6224C1 11.2799 1.53303 11.8129 2.19054 11.8128ZM15 7.47799H12V8.47799H15V7.47799ZM11.9384 5.08493L14.6347 3.76981L14.1964 2.87102L11.5 4.18613L11.9384 5.08493ZM14.6347 12.1862L11.9384 10.8711L11.5 11.7699L14.1964 13.085L14.6347 12.1862Z" />
</svg>
