<svg id="open_file_24" viewBox="0 0 24 24" fill="none" xmlns="http://www.w3.org/2000/svg"><path fill-rule="evenodd" clip-rule="evenodd" d="M11.1972 7.5H12L18.5 7.5V10H7.05064C6.41988 10 5.85651 10.3946 5.64095 10.9874L3.5 16.875V4.5L9.19722 4.5L10.7519 6.83204L11.1972 7.5ZM4.14155 19.5L5 19.5H18.9494L21.8584 11.5H7.05064L4.14155 19.5ZM4.14155 21H3.5C2.67157 21 2 20.3284 2 19.5V4.5C2 3.67157 2.67157 3 3.5 3H9.19722C9.69875 3 10.1671 3.25065 10.4453 3.66796L12 6H18.5C19.3284 6 20 6.67157 20 7.5V10H21.8584C22.8994 10 23.6239 11.0343 23.2681 12.0126L20.359 20.0126C20.1435 20.6054 19.5801 21 18.9494 21H5H4.14155Z" fill="currentColor"></path></svg>